<svg width="24" height="25" viewBox="0 0 24 25" fill="none" xmlns="http://www.w3.org/2000/svg">
<g id="ic_like">
<path id="&#226;&#153;&#161;" d="M11.6129 8.51102C10.738 6.5567 9.18852 5.9 7.78 5.9C5.64304 5.9 3.9 7.84728 3.9 10.356C3.9 11.7161 4.44708 12.8839 5.16092 13.8728C5.81091 14.7732 6.60399 15.5317 7.25562 16.1548C7.31873 16.2152 7.38052 16.2743 7.44073 16.3321L7.4409 16.3323C9.07302 17.8927 10.8293 20.0437 11.4911 21.1156C11.5124 21.1547 11.5541 21.193 11.614 21.193C11.6739 21.193 11.7156 21.1547 11.7369 21.1156C12.3987 20.0437 14.155 17.8927 15.7871 16.3323L15.7873 16.3321C15.8542 16.2678 15.9232 16.2019 15.9937 16.1345C16.6411 15.5161 17.4241 14.7682 18.067 13.8796C18.781 12.8928 19.328 11.7251 19.328 10.356C19.328 7.84728 17.585 5.9 15.448 5.9C14.041 5.9 12.4559 6.55556 11.6129 8.51102Z" fill="#224A99" stroke="#224A99" stroke-width="0.2"/>
</g>
</svg>
