<svg width="17" height="16" viewBox="0 0 17 16" fill="none" xmlns="http://www.w3.org/2000/svg">
<path fill-rule="evenodd" clip-rule="evenodd" d="M1.78086 7.99843C1.78086 4.43429 4.6916 1.53672 8.29242 1.53672C10.6642 1.53672 12.7389 2.79469 13.8775 4.67418L11.1162 3.51454C10.7598 3.36485 10.3495 3.53245 10.1998 3.88889C10.0501 4.24533 10.2177 4.65564 10.5742 4.80533L14.9378 6.63791L15.7662 6.98583L15.9009 6.09743L16.6103 1.41809C16.6682 1.03586 16.4053 0.679027 16.0231 0.621081C15.6409 0.563135 15.2841 0.82602 15.2261 1.20825L14.8612 3.61539C13.4404 1.51688 11.0281 0.136719 8.29242 0.136719C3.92757 0.136719 0.380859 3.65195 0.380859 7.99843C0.380859 12.3449 3.92757 15.8601 8.29242 15.8601C12.2095 15.8601 15.4657 13.0305 16.0945 9.30865C16.1589 8.92745 15.9021 8.56622 15.5209 8.50183C15.1397 8.43743 14.7785 8.69424 14.7141 9.07544C14.1984 12.1279 11.522 14.4601 8.29242 14.4601C4.6916 14.4601 1.78086 11.5626 1.78086 7.99843Z" fill="#224A99"/>
</svg>
